<svg id="Capa_1" enable-background="new 0 0 497.117 497.117" height="512" viewBox="0 0 497.117 497.117" width="512" xmlns="http://www.w3.org/2000/svg"><g><path d="m151.874 396.324 70.175-115.494-18.674 207.068c-33.288.005-60.269-26.979-60.264-60.271.002-11.464 3.207-22.178 8.763-31.303z" fill="#fb9c59"/><path d="m173.111 427.627c0-11.464 1.987-22.178 5.432-31.303l43.506-115.494 53.018-.063 70.221 115.557c5.557 9.125 8.762 19.84 8.763 31.303.005 33.291-26.976 60.275-60.264 60.271-18.007-.003-34.195-7.912-45.241-20.434-11.046 12.522-27.164 20.432-45.171 20.434-16.716.004-30.266-26.98-30.264-60.271z" fill="#fbb860"/><path d="m74.146 199.375 131.527 31.051-202.705 46.227c-10.291-31.657 7.035-65.657 38.698-75.939 10.904-3.541 22.084-3.804 32.48-1.339z" fill="#fb9c59"/><path d="m50.937 229.246c10.903-3.542 21.707-4.963 31.45-4.507l123.286 5.687 16.444 50.403-88.202 102.494c-6.962 8.104-16.161 14.464-27.063 18.008-31.66 10.292-65.661-7.03-75.943-38.69-5.562-17.127-3.042-34.966 5.454-49.341-15.323-6.636-27.826-19.521-33.393-36.646-5.172-15.898 16.304-37.123 47.967-47.408z" fill="#fbb860"/><path d="m237.436 64.59 11.113 134.685-106.604-178.498c26.928-19.57 64.617-13.599 84.181 13.337 6.737 9.275 10.441 19.827 11.31 30.476z" fill="#fb9c59"/><path d="m201.855 51.748c6.738 9.275 11.428 19.111 14.005 28.518l32.689 119.009-42.855 31.214-124.734-52.213c-9.859-4.116-18.75-10.901-25.489-20.174-19.572-26.93-13.605-64.62 13.329-84.182 14.57-10.582 32.315-13.698 48.612-10.06 1.576-16.623 9.967-32.496 24.533-43.083 13.521-9.83 40.344 4.036 59.91 30.971z" fill="#fbb860"/><path d="m416.083 178.237-124.659 52.189 136.82-156.545c26.934 19.562 32.901 57.252 13.329 84.182-6.74 9.274-15.631 16.058-25.49 20.174z" fill="#fb9c59"/><path d="m417.302 140.429c-6.739 9.274-14.644 16.774-22.794 22.132l-103.083 67.865-42.93-31.112 11.113-134.763c.868-10.649 4.573-21.201 11.31-30.476 19.564-26.936 57.253-32.908 84.181-13.337 14.566 10.586 23.013 26.5 24.59 43.124 16.297-3.638 33.986-.563 48.555 10.019 13.527 9.822 8.628 39.617-10.942 66.548z" fill="#fbb860"/><path d="m363.203 383.26-88.156-102.43 191.163 81.748c-10.282 31.66-44.283 48.983-75.943 38.69-10.903-3.545-20.102-9.904-27.064-18.008z" fill="#fb9c59"/><path d="m399.537 372.735c-10.903-3.543-20.479-8.744-28.093-14.84l-96.397-77.066 16.323-50.443 131.601-31.075c10.396-2.465 21.576-2.202 32.479 1.339 31.663 10.283 48.989 44.282 38.698 75.939-5.567 17.125-18.092 30.076-33.414 36.712 8.496 14.375 11.037 32.148 5.476 49.275-5.161 15.902-35.012 20.449-66.673 10.159z" fill="#fbb860"/><path d="m248.569 199.268v90.178c24.853 0 45-20.187 45-45.089s-20.147-45.089-45-45.089z" fill="#5e403d"/><path d="m263.569 244.357c0-24.902-6.716-45.089-15-45.089-24.853 0-45 20.187-45 45.089s20.147 45.089 45 45.089c8.284 0 15-20.187 15-45.089z" fill="#79493c"/></g></svg>